<?xml version="1.0" encoding="utf-8"?>
<svg version="1.1" id="Layer_1" xmlns="http://www.w3.org/2000/svg" xmlns:xlink="http://www.w3.org/1999/xlink" x="0px" y="0px"
	 viewBox="0 0 1698.078 1656.335" style="enable-background:new 0 0 1698.078 1656.335;" xml:space="preserve">
<g>
	<path d="M432.661,1037.964c0.527,0,12.482-8.279,26.57-18.397c130.428-93.673,335.362-116.973,495.308-119.324l0.27-0.732
		l3.306-0.128c35.058-120.422,27.778-139.568,31.044-201.466l-0.932-0.154l0.008-4.132c-142.683,0.031-269.611-3.295-436.227,62.208
		l-0.309-0.129c-19.332,9.592-11.117,1.105-77.171,37.526l-0.497,1.38c-4.977,4.944-33.124,89.751-36.35,105.616
		c-6.517,32.058-9.856,77.813-7.89,108.137l-0.004-0.002C430.843,1024.646,432.134,1037.964,432.661,1037.964z"/>
	<path d="M1176.042,656.036c-5.488-9.688-60.056-49.709-97.036-61.147c-28.923-11.797-61.654-23.294-63.627-21.321
		c-0.794,0.796,0.337,13.009,2.518,27.141c4.398,28.507,5.838,119.389,2.661,155.488
		c-17.793,152.31-106.482,291.582-131.482,340.549c-11.236,19.66-13.126,20.329-11.154,24.055
		c-3.512,10.734,86.958,75.942,99.398,84.337l-0.002,0.002c13.435,9.066,7.959,4.858,35.027,22.835l1.404-1.906
		c1.003,0.017,156.151-169.16,169.662-450.452C1185.466,732.827,1181.306,665.325,1176.042,656.036z"/>
	<path d="M946.156,1407.962c121.9-33.583,200.508-104.512,194.296-106.955c-0.044-1.908,0.902-1.46-35.16-10.533
		c-177.765-44.738-300.609-172.509-353.357-313.967c-10.87-29.155-11.68-30.304-21.354-30.334
		c-46.009-0.142-144.36,45.647-147.433,52.317c-1.924,1.429-6.667-2.942,29.71,69.782
		c67.293,134.529,162.893,253.399,295.487,320.542h-0.002L946.156,1407.962z"/>
	<path d="M1050.2,377.302c-80.859-23.186-172.771-30.633-237.866-35.257c-39.991,58.555-64.797,86.811-79.595,188.317
		c59.637-10.43,206.909-18.433,295.08,6.638c187.83,53.951,214.789,147.284,241.12,217.046
		c45.825,24.157,99.104,49.224,203.385,154.385l-0.002-0.002c19.323,19.486,45.347,44.126,46.348,44.197
		c0.892,0.079,0.915-7.408,0.637-8.928c0.837-6.246-1.984-20.328-6.432-42.64c-35.466-177.939-106.41-339.049-285.249-446.905
		C1142.793,402.99,1051.926,377.255,1050.2,377.302z"/>
	<path d="M241.918,1131.496c17.813,71.61,63.367,178.999,91.274,183.079v-0.002c26.045,3.808,120.82-1.854,178.679-17.814
		c0.937,0.484,1.959,0.46,2.086-0.62c0.273-0.091,1.282-0.403,1.367-0.67c2.266-1.364-25.607-42.583-26.281-43.583
		c-74.988-111.182-95.122-172.449-92.941-282.791c1.129-57.059-1.067-101.289,87.633-257.276l-0.117-1.722l2.492-4.991
		c-22.673-189.328,22.256-288.602,23.07-298.179c0.186-0.692,0.16-1.097-0.15-1.218l0.273-0.715
		C366.35,495.758,271.443,654.241,240.666,807.98C199.595,983.922,240.91,1130.974,241.918,1131.496z"/>
	<path d="M1665.271,1426.404c-5.959-65.782-33.255-179.347-58.469-243.254c-7.773-19.702-36.433-78.084-40.795-82.292
		c-4.364-7.829-5.285-9.336-7.376-13.129c0.215-0.98-0.31-1.964-1.447-2.615c-81.163-146.134-194.225-244.587-338.842-331.98
		c-8.799,124.47-13.986,150.749-32.8,212.876c232.016,116.264,268.859,284.09,278.167,296.594
		c2.55,3.426,15.59,36.734,16.272,44.741c-3.007,3.316-34.694,2.809-54.47,2.809l-0.888,1.919c-0.84,0.329-0.686,0.407-0.934,2.018
		c-29.226,63.168-72.627,119.234-114.886,159.661c-17.698,16.93-31.619,31.344-30.932,32.03c0.687,0.686,9.954,2.612,20.594,4.28
		c16.729,2.623,86.105,1.848,86.105,1.848v0.004c1.405,1.409,3.576-0.191,5.457-0.656c32.047-1.13,19.074-1.158,75.358-9.282
		c50.685-7.31,168.646-37.224,194.433-42.584C1674.071,1456.425,1668.016,1456.717,1665.271,1426.404z"/>
	<path d="M1283.332,1454.739c80.391-85.253,139.481-186.509,151.778-203.142c-0.633-1.012-41.113-66.494-43.66-65.948
		c-42.121-57.063-72.049-88.536-87.761-105.589c-24.304,118.91-86.638,234.55-194.345,298.994c-1.352,0.127-2.455,0.796-2.866,1.691
		c-69.457,40.732-159.432,61.086-239.155,65.916c-29.986,1.818-33.781-0.241-52.47,13.099
		c-102.623,73.259-137.466,76.988-263.905,95.098c25.32,17.87,57.459,36.691,123.856,55.147c0.262,2.135,4.14,2.086,5.633,1.536
		c20.557,5.494,38.774,9.174,54.063,11.552l-0.002,0.002c7.397,1.15,12.358,1.388,17.876,2.093l-0.022,0.028
		c29.609,3.785,219.791,3.845,233.546-6.078c111.732-17.899,204.734-66.896,295.228-162.073
		C1282.378,1456.913,1283.25,1456.064,1283.332,1454.739z"/>
	<path d="M840.449,1391.672l-0.086-0.046l0.494-0.465c-48.454-26.854-71.602-38.232-140.89-115.121
		c-5.033-5.585-8.403-9.184-10.994-11.283c0.755-3.048-0.793-4.135-3.939-3.38l-1.841-2.051l-3.717,4.402
		c-10.093,5.584-80.736,60.564-242.274,75.413c-117.511,5.207-206.608-5.191-215.625-16.202
		c2.941-9.987,18.248-39.752,28.739-60.748l-0.005-0.012l0.388-0.718c-38.235-76.168-49.098-130.827-59.483-193.451
		c0.187-0.818,0.215-1.734-0.384-2.316c-0.001-0.004-7.686-46.351-7.686-46.351l-0.416-2.511
		c-35.222,65.36-160.516,286.296-153.619,433.55c0.13,10.953,0.972,19.954,2.543,26.066l0.64,5.614l1.822,0.642
		c2.357,3.651,67.504,25.625,120.401,36.989c0.649,0.334,0.922,0.315,1.361,0.291c115.165,24.568,225.842,30.656,342.091,16.179
		c65.359-8.138,149.488-27.997,188.565-44.51C785.32,1449.902,805.995,1423.167,840.449,1391.672z"/>
	<path d="M518.063,726.432c0,0,104.9-38.256,140.59-44.019c15.802-2.553,25.106-4.488,30.577-5.57l-0.003-0.107l0.664-0.111
		l-0.272-3.891c0.355-1.023,0.177-2.383-0.224-3.198c-10.416-148.75,11.805-255.235,110.016-369.428
		c19.079-22.186,51.478-52.47,56.132-52.47c11.003,0,53.28,29.606,77.769,54.46l26.195,26.586
		c74.166,10.941,162.519,36.131,165.389,37.222c10.565,4.015,9.671,3.487,9.383,1.343c4.574,0.572-23.359-89.942-58.068-144.51
		c0.702-1.343,0.565-1.624-0.564-0.888C1013.762,125.09,938.029,75.808,844.923,28.168
		c-148.805,150.281-288.204,276.08-327.927,478.954c-1.366-0.776-1.373,0.023-0.49,2.545
		C495.256,621.105,517.063,726.432,518.063,726.432z"/>
</g>
</svg>
